#!OML:ASF I:\Actors\actors\Patient Classification 1\Patient 1\Session 1\Subject1.ASF
:FULLY-SPECIFIED
:DEGREES
781
root 0.594177 17.5127 9.66962 11.5394 -0.380993 -9.24015
lowerback -1.28165 1.92281 7.75649
upperback -8.11389 3.01302 2.86916
thorax -7.60583 1.08691 -1.45235
lowerneck -11.195 -9.834 -8.72529
upperneck 20.3004 -14.5519 10.9973
head 9.73588 -6.42462 3.37974
rclavicle -1.2188e-014 1.77912e-014
rhumerus -7.40414 7.24821 -82.1621
rradius 88.1322
rwrist 10.4182
rhand -12.4903 -52.8445
rfingers 7.12502
rthumb 13.5845 -82.3813
lclavicle -1.2188e-014 1.77912e-014
lhumerus -37.0641 -19.1468 104.669
lradius 96.2514
lwrist 14.0418
lhand -41.4003 -24.8173
lfingers 7.12502
lthumb -14.3173 4.66909
rfemur -4.81955 24.6907 25.919
rtibia 2.67802
rfoot -12.9455 -27.4991
rtoes 5.25314
lfemur 4.06723 -46.3913 -10.8414
ltibia -4.82552
lfoot -26.4313 54.4839
ltoes 14.7305
782
root 0.588678 17.5127 9.68444 11.4093 -0.107928 -9.21748
lowerback -1.35406 1.77992 7.64691
upperback -8.0787 2.80855 2.88349
thorax -7.54488 0.996565 -1.36545
lowerneck -11.3023 -9.55022 -8.34202
upperneck 20.3554 -14.1397 10.6613
head 9.67088 -6.23298 3.26262
rclavicle -2.38542e-015 1.40143e-014
rhumerus -9.64543 8.60819 -83.5085
rradius 91.2146
rwrist 10.217
rhand -12.8443 -53.7337
rfingers 7.12502
rthumb 13.2433 -83.293
lclavicle -2.38542e-015 1.40143e-014
lhumerus -36.9459 -18.7812 104.562
lradius 96.2128
lwrist 13.8517
lhand -41.314 -24.8623
lfingers 7.12502
lthumb -14.2342 4.62989
rfemur -4.52418 24.6713 26.0547
rtibia 2.57865
rfoot -13.0838 -27.7752
rtoes 5.28136
lfemur 4.17837 -46.3066 -10.8797
ltibia -4.84162
lfoot -25.9942 54.2164
ltoes 14.3378
783
root 0.584578 17.5111 9.69112 11.306 0.00294559 -9.19543
lowerback -1.37351 1.70255 7.52438
upperback -8.05528 2.69775 2.88958
thorax -7.51968 0.951464 -1.28612
lowerneck -11.5607 -9.26403 -7.92509
upperneck 20.6454 -13.7295 10.2345
head 9.71084 -6.03625 3.1013
rclavicle 1.02871e-014 -4.77083e-015
rhumerus -11.8921 9.92057 -85.0862
rradius 93.8078
rwrist 9.97389
rhand -13.3552 -54.5671
rfingers 7.12502
rthumb 12.7508 -84.1577
lclavicle 1.02871e-014 -4.77083e-015
lhumerus -36.9091 -18.5337 104.589
lradius 96.2792
lwrist 13.9938
lhand -41.5384 -24.6299
lfingers 7.12502
lthumb -14.4504 4.84703
rfemur -4.42682 24.4119 26.1031
rtibia 2.65735
rfoot -13.2275 -27.6459
rtoes 5.36387
lfemur 4.20243 -46.0529 -10.8968
ltibia -4.7876
lfoot -25.6617 53.9015
ltoes 14.0879
784
root 0.586998 17.5082 9.69395 11.0285 0.166643 -9.38057
lowerback -1.00768 1.65117 7.83105
upperback -8.12352 2.68163 2.85103
thorax -7.80062 0.910177 -1.50614
lowerneck -11.7353 -9.03185 -7.41898
upperneck 21.0317 -13.3946 9.65488
head 9.762 -5.88454 2.86498
rclavicle -2.23633e-014 -2.53947e-014
rhumerus -14.2665 10.7452 -86.8923
rradius 95.7953
rwrist 9.96578
rhand -13.5236 -55.1847
rfingers 7.12502
rthumb 12.5884 -84.7854
lclavicle -2.23633e-014 -2.53947e-014
lhumerus -37.2168 -18.4728 104.741
lradius 96.431
lwrist 14.3983
lhand -41.9469 -24.4031
lfingers 7.12502
lthumb -14.844 5.04514
rfemur -4.0759 24.0315 26.494
rtibia 2.70951
rfoot -13.3125 -27.409
rtoes 5.25603
lfemur 4.50507 -45.6433 -10.9105
ltibia -4.74579
lfoot -24.9846 53.4759
ltoes 13.5455
785
root 0.593263 17.4983 9.69444 11.0221 0.0383621 -9.65069
lowerback -0.691078 1.76248 8.34368
upperback -8.40263 2.89734 2.69882
thorax -8.25673 0.951906 -1.97112
lowerneck -12.2982 -8.95486 -5.79261
upperneck 21.84 -13.1366 7.44809
head 9.84094 -5.82785 1.8652
rclavicle 1.93815e-015 1.49213e-014
rhumerus -16.8706 10.9934 -88.8848
rradius 97.2435
rwrist 10.1922
rhand -13.244 -55.5768
rfingers 7.12502
rthumb 12.8579 -85.1607
lclavicle 1.93815e-015 1.49213e-014
lhumerus -37.7631 -18.5097 104.843
lradius 96.4917
lwrist 14.529
lhand -42.0134 -24.3201
lfingers 7.12502
lthumb -14.9081 5.1234
rfemur -4.16601 23.6336 26.7684
rtibia 2.90117
rfoot -13.2227 -26.8567
rtoes 4.78983
lfemur 4.66535 -45.5504 -10.7876
ltibia -4.73759
lfoot -25.3179 53.5026
ltoes 13.9183
